<svg width="20" height="20" viewBox="0 0 20 20" fill="none" xmlns="http://www.w3.org/2000/svg">
<path d="M14.1667 10.4167C14.3968 10.4167 14.5833 10.2301 14.5833 10C14.5833 9.76992 14.3968 9.58333 14.1667 9.58333C13.9366 9.58333 13.75 9.76992 13.75 10C13.75 10.2301 13.9366 10.4167 14.1667 10.4167Z" fill="black" stroke="black" stroke-linecap="round" stroke-linejoin="round"/>
<path d="M10 10.4167C10.2301 10.4167 10.4167 10.2301 10.4167 10C10.4167 9.76992 10.2301 9.58333 10 9.58333C9.76992 9.58333 9.58334 9.76992 9.58334 10C9.58334 10.2301 9.76992 10.4167 10 10.4167Z" fill="black" stroke="black" stroke-linecap="round" stroke-linejoin="round"/>
<path d="M5.83333 10.4167C6.06345 10.4167 6.25 10.2301 6.25 10C6.25 9.76992 6.06345 9.58333 5.83333 9.58333C5.60321 9.58333 5.41666 9.76992 5.41666 10C5.41666 10.2301 5.60321 10.4167 5.83333 10.4167Z" fill="black" stroke="black" stroke-linecap="round" stroke-linejoin="round"/>
<path d="M10 18.3333C14.6023 18.3333 18.3333 14.6023 18.3333 10C18.3333 5.39763 14.6023 1.66667 10 1.66667C5.39762 1.66667 1.66666 5.39763 1.66666 10C1.66666 11.5178 2.07247 12.9409 2.78151 14.1667L2.08333 17.9167L5.83333 17.2185C7.05906 17.9275 8.48216 18.3333 10 18.3333Z" stroke="black" stroke-linecap="round" stroke-linejoin="round"/>
</svg>
