<svg width="20" height="20" viewBox="0 0 20 20" fill="none" xmlns="http://www.w3.org/2000/svg">
<path d="M14 18.3333C15.3807 18.3333 16.5 17.2141 16.5 15.8333C16.5 14.4526 15.3807 13.3333 14 13.3333C12.6192 13.3333 11.5 14.4526 11.5 15.8333C11.5 17.2141 12.6192 18.3333 14 18.3333Z" stroke="black" stroke-linecap="round" stroke-linejoin="round"/>
<path d="M14 6.66667C15.3807 6.66667 16.5 5.54738 16.5 4.16667C16.5 2.78596 15.3807 1.66667 14 1.66667C12.6192 1.66667 11.5 2.78596 11.5 4.16667C11.5 5.54738 12.6192 6.66667 14 6.66667Z" stroke="black" stroke-linecap="round" stroke-linejoin="round"/>
<path d="M4 12.5C5.38071 12.5 6.5 11.3807 6.5 10C6.5 8.61925 5.38071 7.5 4 7.5C2.61929 7.5 1.5 8.61925 1.5 10C1.5 11.3807 2.61929 12.5 4 12.5Z" stroke="black" stroke-linecap="round" stroke-linejoin="round"/>
<path d="M11.9167 5.41667L6.08333 8.75" stroke="black"/>
<path d="M6.08333 11.25L11.9167 14.5833" stroke="black"/>
</svg>
