<svg width="32" height="37" viewBox="0 0 32 37" fill="none" xmlns="http://www.w3.org/2000/svg">
    <path d="M16 21.6667C19.0376 21.6667 21.5 19.2042 21.5 16.1667C21.5 13.1291 19.0376 10.6667 16 10.6667C12.9624 10.6667 10.5 13.1291 10.5 16.1667C10.5 19.2042 12.9624 21.6667 16 21.6667Z" stroke="#000000" stroke-width="2" stroke-linecap="round" stroke-linejoin="round" />
    <path d="M26.3712 26.5378L18.5923 34.3167C17.9048 35.0035 16.9727 35.3893 16.0009 35.3893C15.0291 35.3893 14.097 35.0035 13.4095 34.3167L5.62882 26.5378C3.57773 24.4866 2.18094 21.8733 1.61508 19.0283C1.04922 16.1832 1.33972 13.2343 2.44983 10.5544C3.55993 7.87441 5.4398 5.58384 7.8517 3.97228C10.2636 2.36072 13.0992 1.50055 16 1.50055C18.9007 1.50055 21.7364 2.36072 24.1483 3.97228C26.5602 5.58384 28.44 7.87441 29.5501 10.5544C30.6603 13.2343 30.9507 16.1832 30.3849 19.0283C29.819 21.8733 28.4222 24.4866 26.3712 26.5378V26.5378Z" stroke="#000000" stroke-width="2" stroke-linecap="round" stroke-linejoin="round" />
</svg>